<svg xmlns="http://www.w3.org/2000/svg" width="1200" height="760" viewBox="0 0 1200 760"><rect width="1200" height="760" fill="#f3f4f1"/><text x="55" y="60" font-family="Arial" font-size="32" font-weight="700" fill="#152126">LOOMFORGE / REAR THREE-QUARTER SERVICE</text><text x="55" y="94" font-family="Arial" font-size="16" fill="#507077">LF-P1-R02 - CAD-derived technical illustration - not physical validation</text><rect x="170" y="530" width="760" height="110" rx="16" fill="#20282c" stroke="#152126" stroke-width="2"/><rect x="215" y="495" width="670" height="36" rx="4" fill="#d6d7d2" stroke="#152126" stroke-width="2"/><rect x="190" y="220" width="72" height="310" rx="4" fill="#e2e3de" stroke="#152126" stroke-width="2"/><rect x="838" y="220" width="72" height="310" rx="4" fill="#e2e3de" stroke="#152126" stroke-width="2"/><rect x="330" y="200" width="360" height="300" rx="4" fill="#20282c" stroke="#152126" stroke-width="2"/><rect x="375" y="240" width="12" height="115" rx="4" fill="#0c1012" stroke="#152126" stroke-width="2"/><rect x="405" y="240" width="12" height="115" rx="4" fill="#0c1012" stroke="#152126" stroke-width="2"/><rect x="435" y="240" width="12" height="115" rx="4" fill="#0c1012" stroke="#152126" stroke-width="2"/><rect x="465" y="240" width="12" height="115" rx="4" fill="#0c1012" stroke="#152126" stroke-width="2"/><rect x="495" y="240" width="12" height="115" rx="4" fill="#0c1012" stroke="#152126" stroke-width="2"/><rect x="525" y="240" width="12" height="115" rx="4" fill="#0c1012" stroke="#152126" stroke-width="2"/><rect x="555" y="240" width="12" height="115" rx="4" fill="#0c1012" stroke="#152126" stroke-width="2"/><rect x="585" y="240" width="12" height="115" rx="4" fill="#0c1012" stroke="#152126" stroke-width="2"/><rect x="615" y="240" width="12" height="115" rx="4" fill="#0c1012" stroke="#152126" stroke-width="2"/><rect x="645" y="240" width="12" height="115" rx="4" fill="#0c1012" stroke="#152126" stroke-width="2"/><text x="55" y="720" font-family="Arial" font-size="15" fill="#526166">Rear spine conceals cable chain/electronics routing; service panel requires power isolation.</text></svg>